HIERARCHY
ROOT Hips
{
	OFFSET -21.947001 39.810207 44.525993
	CHANNELS 6 Xposition Yposition Zposition Zrotation Xrotation Yrotation
	JOINT Chest
	{
		OFFSET -0.201599 0.334099 6.453201
		CHANNELS 3 Zrotation Xrotation Yrotation
		JOINT Chest2
		{
			OFFSET 0.000000 0.000000 3.568001
			CHANNELS 3 Zrotation Xrotation Yrotation
			JOINT Neck
			{
				OFFSET 0.000000 0.000000 8.296402
				CHANNELS 3 Zrotation Xrotation Yrotation
				JOINT Head
				{
					OFFSET 0.000000 0.000000 2.173904
					CHANNELS 3 Zrotation Xrotation Yrotation
					End Site
					{
						OFFSET 0.000000 0.000000 7.891998
					}
				}
			}
			JOINT LeftCollar
			{
				OFFSET 1.927601 0.221401 6.049000
				CHANNELS 3 Zrotation Xrotation Yrotation
				JOINT LeftShoulder
				{
					OFFSET 4.959700 0.000000 0.000000
					CHANNELS 3 Zrotation Xrotation Yrotation
					JOINT LeftElbow
					{
						OFFSET 0.000000 0.000000 -8.654202
						CHANNELS 3 Zrotation Xrotation Yrotation
						JOINT LeftWrist
						{
							OFFSET 0.000000 0.000000 -13.864101
							CHANNELS 3 Zrotation Xrotation Yrotation
							End Site
							{
								OFFSET 0.000000 0.000000 -2.173901
							}
						}
					}
				}
			}
			JOINT RightCollar
			{
				OFFSET -3.155701 -0.764999 6.687801
				CHANNELS 3 Zrotation Xrotation Yrotation
				JOINT RightShoulder
				{
					OFFSET -3.592899 0.000000 0.000000
					CHANNELS 3 Zrotation Xrotation Yrotation
					JOINT RightElbow
					{
						OFFSET 0.000000 0.000000 -10.352398
						CHANNELS 3 Zrotation Xrotation Yrotation
						JOINT RightWrist
						{
							OFFSET 0.000000 0.000000 -12.750301
							CHANNELS 3 Zrotation Xrotation Yrotation
							End Site
							{
								OFFSET 0.000000 0.000000 -2.173901
							}
						}
					}
				}
			}
		}
	}
	JOINT LeftHip
	{
		OFFSET 2.460600 -0.518101 -2.735500
		CHANNELS 3 Zrotation Xrotation Yrotation
		JOINT LeftKnee
		{
			OFFSET 0.000000 -0.000008 -17.005899
			CHANNELS 3 Zrotation Xrotation Yrotation
			JOINT LeftAnkle
			{
				OFFSET 0.000000 0.000000 -19.194399
				CHANNELS 3 Zrotation Xrotation Yrotation
				End Site
				{
					OFFSET 0.000000 -8.134600 0.000000
				}
			}
		}
	}
	JOINT RightHip
	{
		OFFSET -3.115499 -0.679600 -2.320301
		CHANNELS 3 Zrotation Xrotation Yrotation
		JOINT RightKnee
		{
			OFFSET 0.000000 -0.000008 -17.680401
			CHANNELS 3 Zrotation Xrotation Yrotation
			JOINT RightAnkle
			{
				OFFSET 0.000000 0.000000 -16.993795
				CHANNELS 3 Zrotation Xrotation Yrotation
				End Site
				{
					OFFSET 0.000000 -8.842300 0.000000
				}
			}
		}
	}
}
MOTION
Frames: 8
Frame Time: 0.020000
-20.130005 35.824600 40.483490 -65.610517 14.892206 -7.837108 -22.169433 -3.411207 21.660657 2.572125 -7.051051 -0.550282 63.111501 -17.800830 2.825476 5.205202 -0.039928 8.930071 -21.353673 0.043028 2.678143 -56.689402 -23.813834 -87.887425 39.749092 -20.041276 15.423511 59.964048 -19.953768 3.834105 30.097809 0.331936 -0.651129 10.306172 1.768850 144.953430 -62.089199 -141.154506 -32.164556 12.634040 -3.434900 -21.965176 24.596584 -29.211370 15.765422 -61.613695 24.645278 36.561203 43.501885 8.626381 34.588228 -56.453108 -48.984273 -31.539778 70.535924 -2.322135 -116.026377 -53.347821 29.859306 -147.775132 
-20.142902 35.825806 40.490791 -65.649552 14.932392 -7.883032 -22.170603 -3.514651 21.705674 2.615546 -7.034188 -0.543870 63.104398 -17.820334 2.837671 5.198108 -0.019912 8.948969 -21.263041 0.033959 2.654035 -56.817335 -23.751508 -87.922805 39.508434 -20.149893 15.244767 60.254030 -19.815690 3.861426 29.979186 0.219372 -0.583929 10.344358 1.953507 144.870921 -62.419992 -141.167634 -32.293817 12.601230 -3.456249 -21.998018 24.605879 -29.176512 15.801390 -61.587385 24.574744 36.496617 43.596923 8.754353 33.963751 -56.252615 -49.054914 -31.413662 70.475777 -2.461674 -116.049873 -53.477564 29.871238 -147.743207 
-20.150099 35.826504 40.496284 -65.676920 14.973112 -7.941065 -22.184647 -3.619496 21.752838 2.657578 -7.029244 -0.540078 63.122628 -17.832171 2.836742 5.177312 -0.006613 8.984946 -21.226234 0.049832 2.659278 -56.827970 -23.693366 -88.015675 39.134211 -20.272143 15.129653 60.951058 -19.824032 4.052001 29.895830 0.139044 -0.542831 10.400689 2.068881 144.823725 -62.674048 -141.189709 -32.420838 12.564077 -3.410831 -21.999348 24.467913 -29.143748 15.811784 -61.566984 24.428168 36.398447 43.790638 8.866942 33.492874 -56.340520 -49.117318 -31.481394 70.619703 -2.696820 -116.106877 -53.796312 29.845577 -148.346750 
-20.157200 35.828407 40.502193 -65.688491 15.002685 -7.954017 -22.238075 -3.691987 21.740110 2.464928 -7.015242 -0.638806 63.431974 -17.773732 2.883021 5.148676 0.000911 9.032966 -20.907238 0.006732 2.778044 -56.755979 -23.483210 -88.031638 39.075471 -20.450088 15.157776 61.300367 -19.807291 3.889386 30.105783 0.143302 -0.404556 10.438039 2.087661 144.770641 -62.821286 -141.210609 -32.505546 12.558823 -3.309497 -21.966571 24.285316 -29.114890 15.787958 -61.977007 24.060364 36.384824 44.317491 8.934900 33.427789 -56.497443 -49.132778 -31.607513 70.782002 -2.908323 -116.179769 -54.103199 29.836411 -148.978351 
-20.165394 35.829407 40.507896 -65.688573 15.019815 -7.970949 -22.285444 -3.742777 21.716306 2.499454 -7.011955 -0.635356 63.504046 -17.746587 2.899824 5.132436 -0.008102 9.072283 -20.730241 -0.045272 3.048966 -56.994329 -22.810313 -88.444003 39.479733 -20.272792 15.349754 61.361887 -19.768970 3.909856 30.122524 0.163158 -0.264158 10.425641 2.030452 144.673734 -62.858169 -141.220049 -32.524637 12.612866 -3.199097 -21.929506 24.155292 -29.066744 15.799940 -62.529624 23.661934 36.377509 44.899543 9.004044 33.445227 -56.515909 -49.167643 -31.613783 70.832852 -3.125006 -116.258713 -54.518543 29.862362 -149.199813 
-20.172596 35.831013 40.512497 -65.679120 15.026421 -7.964678 -22.341685 -3.769153 21.661072 2.531714 -7.008321 -0.631798 63.589976 -17.711031 2.916492 5.124549 -0.022451 9.097515 -20.598763 -0.093918 3.125395 -57.193494 -22.541796 -88.652092 39.768343 -20.085698 15.458654 61.192150 -19.793168 4.036443 30.163919 0.255546 -0.807750 10.376037 2.007956 145.266062 -62.806164 -141.216442 -32.499423 12.727477 -3.090655 -21.898664 24.031163 -29.026197 15.796028 -62.943465 23.291575 36.308627 45.438684 9.162771 33.553379 -56.675130 -49.216007 -31.718350 71.046036 -3.271040 -116.292440 -54.521486 29.828423 -149.301774 
-20.178797 35.833309 40.516792 -65.652318 15.027116 -7.944692 -22.407508 -3.777952 21.589893 2.559120 -7.006128 -0.628768 63.655751 -17.686758 2.931898 5.149843 -0.042269 9.088778 -20.516299 -0.129043 3.220252 -57.285179 -22.260466 -88.841493 40.319587 -19.939491 15.690152 60.760782 -19.839357 3.994827 30.242718 0.371645 -0.650721 10.333666 1.825706 145.172256 -62.689648 -141.199599 -32.445127 12.948812 -2.896519 -22.046109 23.937429 -28.998142 15.801475 -63.608992 22.890802 36.321385 46.026859 9.179393 34.063185 -56.797131 -49.249253 -31.789367 71.179075 -3.456616 -116.260762 -54.622573 29.813516 -149.628012 
-20.183704 35.835499 40.521492 -65.632770 15.026029 -7.914891 -22.483125 -3.789612 21.517830 2.598806 -7.007498 -0.624676 63.707094 -17.679542 2.926365 5.195795 -0.059312 9.044090 -20.464667 -0.142112 3.357936 -57.349957 -21.917988 -89.077237 41.059983 -19.764013 15.972804 60.030936 -19.738248 3.601431 30.324438 0.510842 -0.534077 10.261024 1.664091 145.096249 -62.647772 -141.184409 -32.409091 13.057452 -2.838270 -22.118676 23.902418 -28.979482 15.828077 -63.934054 22.712469 36.248405 46.315503 9.301344 34.146165 -56.927738 -49.290893 -31.860343 71.353743 -3.547817 -116.232280 -54.427083 29.765848 -149.755080 
